<?xml version="1.0" encoding="utf-8"?>
<!-- Generator: Adobe Illustrator 21.1.0, SVG Export Plug-In . SVG Version: 6.00 Build 0)  -->
<svg version="1.1" id="Calque_1" xmlns="http://www.w3.org/2000/svg" xmlns:xlink="http://www.w3.org/1999/xlink" x="0px" y="0px"
	 viewBox="0 0 100 100" style="enable-background:new 0 0 100 100;" xml:space="preserve">
<style type="text/css">
	.st0{fill:#FFFFFF;}
</style>
<g id="gLpaMs.tif">
	<g>
		<path class="st0" d="M49.7,71.3c-0.5-0.4-0.9-0.8-1.4-1.2c-3.5-2.9-7-5.8-10.4-8.8c-2.4-2.1-4.7-4.4-6.7-7c-1.4-1.8-2.4-3.8-2.9-6
			c-0.7-3-0.5-6,0.9-8.8c2-3.6,4.9-5.6,9-6.1c4.1-0.4,7.4,1,10.2,3.9c0.4,0.4,0.8,0.8,1.2,1.3c0.2-0.3,0.5-0.5,0.7-0.7
			c1.5-1.6,3.1-3,5.2-3.7c6.7-2.5,13.8,1.1,15.6,7.9c0.8,3.1,0.4,6.2-0.9,9.1c-0.9,2-2.2,3.8-3.7,5.4c-2.6,3-5.6,5.5-8.6,8.1
			c-2.6,2.2-5.2,4.3-7.8,6.5c-0.1,0.1-0.2,0.2-0.3,0.3C49.8,71.3,49.7,71.3,49.7,71.3z M49.7,42.4c-0.1-0.2-0.3-0.3-0.4-0.5
			c-0.9-1.1-1.9-2.2-2.9-3.2c-2.4-2.3-5.2-3.2-8.5-2.7c-4,0.6-7.2,4.2-7.4,8.3c-0.1,2.6,0.5,4.9,1.8,7.2c1.3,2.1,2.9,3.9,4.7,5.6
			c3.9,3.9,8.3,7.3,12.5,10.8c0.1,0.1,0.3,0.1,0.3,0c3.4-2.9,6.8-5.8,10.2-8.7c2.1-1.8,4.1-3.9,5.8-6.1c1.4-1.8,2.5-3.9,2.8-6.2
			c0.3-2,0.2-3.9-0.6-5.8c-2-4.7-7.3-6.5-11.9-4.6c-1.6,0.7-2.9,1.8-4.1,3C51.4,40.5,50.6,41.5,49.7,42.4z"/>
	</g>
</g>
<path class="st0" d="M96,50.2C96,75.4,75.5,95.9,50.3,96c-25.3,0.1-46-20.6-45.9-46C4.5,24.9,25.1,4.4,50.3,4.4
	C75.5,4.5,96,25,96,50.2z M50.2,9C27.6,9,9,27.6,9,50.2s18.6,41.2,41.2,41.2s41.2-18.6,41.2-41.2S72.8,9,50.2,9z"/>
</svg>
