<?xml version="1.0" encoding="utf-8"?>
<!-- Generator: Adobe Illustrator 21.1.0, SVG Export Plug-In . SVG Version: 6.00 Build 0)  -->
<svg version="1.1" id="Calque_1" xmlns="http://www.w3.org/2000/svg" xmlns:xlink="http://www.w3.org/1999/xlink" x="0px" y="0px"
	 viewBox="0 0 100 100" style="enable-background:new 0 0 100 100;" xml:space="preserve">
<style type="text/css">
	.st0{fill:#FFFFFF;}
</style>
<path class="st0" d="M108.1,50.2c0,32.4-26.4,58.8-58.8,58.9C16.7,109.2-9.8,82.6-9.7,50c0.1-32.4,26.6-58.7,59-58.7
	C81.7-8.6,108.1,17.8,108.1,50.2z M49.2-2.8c-29.1,0-53,23.9-53,53c0,29.1,23.9,53,53,53c29.1,0,53-23.9,53-53
	C102.2,21.1,78.3-2.8,49.2-2.8z"/>
<g id="gLpaMs.tif">
	<g>
		<path class="st0" d="M49.8,80.9c-0.7-0.6-1.3-1.2-2-1.7c-5.1-4.3-10.3-8.6-15.3-13c-3.6-3.1-7-6.5-9.9-10.4
			c-2-2.7-3.6-5.6-4.3-8.9c-1-4.5-0.8-8.9,1.4-13c2.9-5.3,7.3-8.3,13.3-9c6-0.6,10.9,1.5,15.1,5.7c0.6,0.6,1.2,1.2,1.8,1.9
			c0.3-0.4,0.7-0.7,1-1.1c2.2-2.3,4.6-4.4,7.7-5.5c9.9-3.7,20.4,1.6,23,11.6c1.2,4.6,0.6,9.1-1.4,13.4c-1.4,3-3.3,5.6-5.5,8
			c-3.9,4.4-8.3,8.2-12.7,12c-3.8,3.2-7.7,6.4-11.5,9.6c-0.1,0.1-0.3,0.3-0.4,0.4C49.9,80.9,49.8,80.9,49.8,80.9z M49.8,38.2
			c-0.2-0.3-0.4-0.5-0.6-0.7c-1.4-1.6-2.8-3.2-4.3-4.7c-3.5-3.4-7.7-4.8-12.5-4C26.5,29.7,21.8,35,21.5,41
			c-0.2,3.8,0.7,7.3,2.7,10.6c1.9,3.1,4.3,5.8,6.9,8.3c5.8,5.7,12.2,10.8,18.4,16c0.2,0.2,0.4,0.1,0.5,0c5-4.3,10.1-8.5,15-12.8
			c3.1-2.7,6.1-5.7,8.6-9c2.1-2.7,3.7-5.7,4.2-9.1c0.5-2.9,0.3-5.7-0.9-8.5c-3-6.9-10.8-9.6-17.6-6.8c-2.4,1-4.3,2.6-6,4.4
			C52.3,35.4,51.1,36.8,49.8,38.2z"/>
	</g>
</g>
</svg>
