<?xml version="1.0" encoding="utf-8"?>
<!-- Generator: Adobe Illustrator 21.1.0, SVG Export Plug-In . SVG Version: 6.00 Build 0)  -->
<svg version="1.1" id="Calque_1" xmlns="http://www.w3.org/2000/svg" xmlns:xlink="http://www.w3.org/1999/xlink" x="0px" y="0px"
	 viewBox="0 0 100 100" style="enable-background:new 0 0 100 100;" xml:space="preserve">
<style type="text/css">
	.st0{fill:#FFFFFF;}
</style>
<path class="st0" d="M97,50.2C97,76.5,75.6,98,49.3,98c-26.4,0.1-48-21.6-47.9-48C1.5,23.8,23,2.4,49.3,2.4
	C75.6,2.5,97,23.9,97,50.2z M49.2,7.2c-23.7,0-43,19.4-43,43.1c0,23.7,19.4,43,43.1,43c23.7,0,43-19.4,43-43.1
	C92.2,26.6,72.8,7.2,49.2,7.2z"/>
<g>
	<path class="st0" d="M31.9,51.3c0-2.5,1.7-4.3,4.1-4.3c2.4,0,4,1.8,4,4.3c0,2.4-1.6,4.3-4.1,4.3C33.5,55.6,31.9,53.8,31.9,51.3z"/>
	<path class="st0" d="M45.9,51.3c0-2.5,1.7-4.3,4.1-4.3s4,1.8,4,4.3c0,2.4-1.6,4.3-4.1,4.3C47.6,55.6,45.9,53.8,45.9,51.3z"/>
	<path class="st0" d="M60,51.3c0-2.5,1.7-4.3,4.1-4.3c2.4,0,4,1.8,4,4.3c0,2.4-1.6,4.3-4.1,4.3C61.6,55.6,60,53.8,60,51.3z"/>
</g>
</svg>
