<?xml version="1.0" encoding="utf-8"?>
<!-- Generator: Adobe Illustrator 21.1.0, SVG Export Plug-In . SVG Version: 6.00 Build 0)  -->
<svg version="1.1" id="Calque_1" xmlns="http://www.w3.org/2000/svg" xmlns:xlink="http://www.w3.org/1999/xlink" x="0px" y="0px"
	 viewBox="0 0 100 100" style="enable-background:new 0 0 100 100;" xml:space="preserve">
<style type="text/css">
	.st0{fill:#FFFFFF;}
</style>
<path class="st0" d="M108.1,50.2c0,32.4-26.4,58.8-58.8,58.9C16.7,109.2-9.8,82.6-9.7,50c0.1-32.4,26.6-58.7,59-58.7
	C81.7-8.6,108.1,17.8,108.1,50.2z M49.2-2.8c-29.1,0-53,23.9-53,53c0,29.1,23.9,53,53,53c29.1,0,53-23.9,53-53
	C102.2,21.1,78.3-2.8,49.2-2.8z"/>
<g>
	<path class="st0" d="M27.9,51.6c0-3.1,2.1-5.3,5-5.3c2.9,0,4.9,2.2,4.9,5.3c0,3-1.9,5.3-5,5.3C29.9,56.8,27.9,54.6,27.9,51.6z"/>
	<path class="st0" d="M45.2,51.6c0-3.1,2.1-5.3,5-5.3c2.9,0,4.9,2.2,4.9,5.3c0,3-1.9,5.3-5,5.3C47.2,56.8,45.2,54.6,45.2,51.6z"/>
	<path class="st0" d="M62.5,51.6c0-3.1,2.1-5.3,5-5.3c2.9,0,4.9,2.2,4.9,5.3c0,3-1.9,5.3-5,5.3C64.5,56.8,62.5,54.6,62.5,51.6z"/>
</g>
</svg>
