<?xml version="1.0" encoding="utf-8"?>
<!-- Generator: Adobe Illustrator 21.1.0, SVG Export Plug-In . SVG Version: 6.00 Build 0)  -->
<svg version="1.1" id="Calque_1" xmlns="http://www.w3.org/2000/svg" xmlns:xlink="http://www.w3.org/1999/xlink" x="0px" y="0px"
	 viewBox="0 0 100 100" style="enable-background:new 0 0 100 100;" xml:space="preserve">
<style type="text/css">
	.st0{fill:#FFFFFF;}
</style>
<path class="st0" d="M94,50.2C94,74.8,73.9,94.9,49.3,95c-24.8,0.1-45-20.2-44.9-45C4.5,25.4,24.6,5.4,49.3,5.4
	C73.9,5.5,94,25.6,94,50.2z M49.2,9.9C27.1,9.9,8.9,28.1,8.9,50.2s18.2,40.3,40.3,40.3s40.3-18.2,40.3-40.3S71.3,9.9,49.2,9.9z"/>
<path class="st0" d="M45.5,59.9c-3.7,2.4-6.9,4.6-10.2,6.5c-1.3,0.8-2.6,1.6-4,2.1c-2.4,0.8-4-0.1-4.8-2.6c-0.6-2.1-0.5-4.2-0.5-6.2
	c0-6.6-0.1-13.3,0-19.9c0-2.2-0.1-4.6,2.1-5.9c2.4-1.4,4.5,0.2,6.5,1.4c3.4,2.1,6.8,4.4,10.3,6.7c1.1-0.9,0.6-2.1,0.7-3
	c0.4-5.6,3-7.1,7.8-4.1c2.8,1.7,5.5,3.6,8.2,5.3c3.1,2.1,6.3,4,9.4,6.2c4.1,2.9,4.1,6.8,0,9.7c-5.6,3.9-11.3,7.5-17,11.1
	c-5.5,3.4-8.1,2-8.4-4.6C45.4,61.9,45.5,61.3,45.5,59.9z M30.5,51c0,2.8-0.1,5.6,0,8.4c0,1.2-0.5,2.7,1,3.4c1.2,0.5,2.1-0.5,3.1-1.2
	c4-2.6,8-5.2,12-7.8c2.1-1.4,3.3-1,3.3,1.7c0,1.6,0,3.3,0,4.9c0.1,2.4,1,3.3,3.3,1.8c4.6-3,9.1-6,13.8-9c2.1-1.4,2.3-2.8,0.1-4.3
	c-3.3-2.2-6.5-4.5-10-6.5c-2-1.2-3.9-4.2-6.2-2.9c-2.1,1.1-0.7,4.3-0.8,6.6c-0.2,3.3-0.8,3.8-3.7,1.9c-4.1-2.7-8.2-5.3-12.2-8.1
	c-2.4-1.6-3.3-0.8-3.3,1.8C30.5,44.9,30.5,47.9,30.5,51z"/>
</svg>
