<?xml version="1.0" encoding="utf-8"?>
<!-- Generator: Adobe Illustrator 21.1.0, SVG Export Plug-In . SVG Version: 6.00 Build 0)  -->
<svg version="1.1" id="Calque_1" xmlns="http://www.w3.org/2000/svg" xmlns:xlink="http://www.w3.org/1999/xlink" x="0px" y="0px"
	 viewBox="0 0 100 100" style="enable-background:new 0 0 100 100;" xml:space="preserve">
<style type="text/css">
	.st0{fill:#FFFFFF;}
</style>
<path class="st0" d="M108.1,50.2c0,32.4-26.4,58.8-58.8,58.9C16.7,109.2-9.8,82.6-9.7,50c0.1-32.4,26.6-58.7,59-58.7
	C81.7-8.6,108.1,17.8,108.1,50.2z M49.2-2.8c-29.1,0-53,23.9-53,53c0,29.1,23.9,53,53,53c29.1,0,53-23.9,53-53
	C102.2,21.1,78.3-2.8,49.2-2.8z"/>
<path class="st0" d="M72.5,51.5c0,6.1,0.2,12.3-0.1,18.4c-0.2,4.3-2.3,7.6-6.5,9.1c-3.7,1.3-6.9,0.4-9.8-2.1C53.8,74.8,53,72,53,69
	c-0.1-11.9-0.2-23.9,0.1-35.8c0.1-5.5,3.2-8.8,7.9-9.9c4.1-0.9,8.4,1.1,10.4,4.9c1.2,2.2,1.3,4.7,1.3,7.1c0,5.4,0,10.7,0,16.1
	C72.6,51.5,72.6,51.5,72.5,51.5z M66.6,51.4c0-5.8,0-11.6,0-17.5c0-2.6-0.6-4.7-3.6-4.9c-3.3-0.1-4.1,2.1-4.1,4.9
	c0,11.5,0,23,0,34.5c0,2.7,0.5,5.1,3.9,5.1c3.3,0,3.9-2.4,3.8-5.1C66.6,62.7,66.6,57.1,66.6,51.4z"/>
<path class="st0" d="M25.4,49.5c0.4-5.4-0.7-12.2,0.5-18.8c0.8-4.5,3.9-6.9,8.2-7.5c4.2-0.6,7.4,1.3,9.6,4.9c1.1,1.9,1.4,4,1.4,6.2
	c0,11.3,0.1,22.7,0,34c-0.1,6.7-4,11.1-9.6,11.3c-5.7,0.2-9.9-4.4-10.1-11.3C25.3,62.5,25.4,56.6,25.4,49.5z M39.1,51.4
	c0-5.8,0-11.6,0-17.5c0-2.5-0.7-4.7-3.7-4.8c-3.2-0.1-4,2.1-4,4.9c0,11.5,0,23,0,34.5c0,2.7,0.6,5.1,3.9,5c3.3,0,3.8-2.5,3.8-5.1
	C39.1,62.7,39.1,57,39.1,51.4z"/>
</svg>
