<?xml version="1.0" encoding="utf-8"?>
<!-- Generator: Adobe Illustrator 21.1.0, SVG Export Plug-In . SVG Version: 6.00 Build 0)  -->
<svg version="1.1" id="Calque_1" xmlns="http://www.w3.org/2000/svg" xmlns:xlink="http://www.w3.org/1999/xlink" x="0px" y="0px"
	 viewBox="0 0 100 100" style="enable-background:new 0 0 100 100;" xml:space="preserve">
<style type="text/css">
	.st0{fill:#FFFFFF;}
</style>
<path class="st0" d="M94,50.2C94,74.8,73.9,94.9,49.3,95c-24.8,0.1-45-20.2-44.9-45C4.5,25.4,24.6,5.4,49.3,5.4
	C73.9,5.5,94,25.6,94,50.2z M49.2,9.9C27.1,9.9,8.9,28.1,8.9,50.2s18.2,40.3,40.3,40.3s40.3-18.2,40.3-40.3S71.3,9.9,49.2,9.9z"/>
<path class="st0" d="M66.9,51.2c0,4.6,0.2,9.4-0.1,14c-0.2,3.3-1.7,5.8-4.9,6.9c-2.8,1-5.2,0.3-7.5-1.6c-1.7-1.6-2.4-3.7-2.4-6
	c-0.1-9.1-0.2-18.2,0.1-27.2c0.1-4.2,2.4-6.7,6-7.5c3.1-0.7,6.4,0.8,7.9,3.7c0.9,1.7,1,3.6,1,5.4c0,4.1,0,8.1,0,12.2
	C67,51.2,67,51.2,66.9,51.2z M62.4,51.1c0-4.4,0-8.8,0-13.3c0-2-0.5-3.6-2.7-3.7c-2.5-0.1-3.1,1.6-3.1,3.7c0,8.7,0,17.5,0,26.2
	c0,2.1,0.4,3.9,3,3.9c2.5,0,3-1.8,2.9-3.9C62.4,59.7,62.4,55.4,62.4,51.1z"/>
<path class="st0" d="M31.1,49.7c0.3-4.1-0.5-9.3,0.4-14.3c0.6-3.4,3-5.2,6.2-5.7c3.2-0.5,5.6,1,7.3,3.7c0.8,1.4,1.1,3,1.1,4.7
	c0,8.6,0.1,17.3,0,25.9c-0.1,5.1-3,8.4-7.3,8.6c-4.3,0.2-7.5-3.3-7.7-8.6C31,59.6,31.1,55.1,31.1,49.7z M41.5,51.1
	c0-4.4,0-8.8,0-13.3c0-1.9-0.5-3.6-2.8-3.7c-2.4-0.1-3,1.6-3,3.7c0,8.7,0,17.5,0,26.2c0,2.1,0.5,3.9,3,3.8c2.5,0,2.9-1.9,2.9-3.9
	C41.5,59.7,41.5,55.4,41.5,51.1z"/>
</svg>
