<?xml version="1.0" encoding="utf-8"?>
<!-- Generator: Adobe Illustrator 21.1.0, SVG Export Plug-In . SVG Version: 6.00 Build 0)  -->
<svg version="1.1" id="Calque_1" xmlns="http://www.w3.org/2000/svg" xmlns:xlink="http://www.w3.org/1999/xlink" x="0px" y="0px"
	 viewBox="0 0 100 100" style="enable-background:new 0 0 100 100;" xml:space="preserve">
<style type="text/css">
	.st0{fill:#FFFFFF;}
</style>
<path class="st0" d="M108.1,50.2c0,32.4-26.4,58.8-58.8,58.9C16.7,109.2-9.8,82.6-9.7,50c0.1-32.4,26.6-58.7,59-58.7
	C81.7-8.6,108.1,17.8,108.1,50.2z M49.2-2.8c-29.1,0-53,23.9-53,53c0,29.1,23.9,53,53,53c29.1,0,53-23.9,53-53
	C102.2,21.1,78.3-2.8,49.2-2.8z"/>
<path class="st0" d="M31.6,50.1c0-7.1-0.1-14.1,0-21.2c0.2-7.2,3.8-9.3,9.9-5.4C52.2,30.1,62.7,37.1,73,44.2
	c5.3,3.6,5.1,8.7-0.2,12.4c-10.3,7-20.6,13.8-31.2,20.4c-6.3,3.9-9.8,1.8-10-5.7C31.5,64.2,31.6,57.1,31.6,50.1z M37.3,50.1
	c0,5.7-0.1,11.3,0,17c0.1,4.2,1.1,4.9,4.6,2.7c8.5-5.5,16.9-11.1,25.4-16.6c3-2,3.2-3.8,0.1-5.9c-8.5-5.5-16.9-11.2-25.3-16.7
	c-3.5-2.3-4.6-1.7-4.7,2.4C37.3,38.8,37.3,44.5,37.3,50.1z"/>
</svg>
