<?xml version="1.0" encoding="utf-8"?>
<!-- Generator: Adobe Illustrator 21.1.0, SVG Export Plug-In . SVG Version: 6.00 Build 0)  -->
<svg version="1.1" id="Calque_1" xmlns="http://www.w3.org/2000/svg" xmlns:xlink="http://www.w3.org/1999/xlink" x="0px" y="0px"
	 viewBox="0 0 100 100" style="enable-background:new 0 0 100 100;" xml:space="preserve">
<style type="text/css">
	.st0{fill:#FFFFFF;}
</style>
<path class="st0" d="M94,50.2C94,74.8,73.9,94.9,49.3,95c-24.8,0.1-45-20.2-44.9-45C4.5,25.4,24.6,5.4,49.3,5.4
	C73.9,5.5,94,25.6,94,50.2z M49.2,9.9C27.1,9.9,8.9,28.1,8.9,50.2s18.2,40.3,40.3,40.3s40.3-18.2,40.3-40.3S71.3,9.9,49.2,9.9z"/>
<path class="st0" d="M35.8,50.1c0-5.4-0.1-10.7,0-16.1c0.2-5.5,2.9-7.1,7.5-4.1c8.1,5,16.1,10.3,24,15.7c4,2.7,3.9,6.6-0.2,9.4
	c-7.8,5.3-15.7,10.5-23.7,15.5c-4.8,3-7.5,1.4-7.6-4.3C35.7,60.8,35.8,55.4,35.8,50.1z M40.1,50.1c0,4.3-0.1,8.6,0,12.9
	c0.1,3.2,0.8,3.7,3.5,2.1c6.5-4.2,12.9-8.4,19.3-12.6c2.3-1.5,2.4-2.9,0.1-4.5c-6.5-4.2-12.9-8.5-19.2-12.7
	c-2.7-1.7-3.5-1.3-3.6,1.8C40.1,41.5,40.1,45.9,40.1,50.1z"/>
</svg>
