<?xml version="1.0" encoding="utf-8"?>
<!-- Generator: Adobe Illustrator 21.1.0, SVG Export Plug-In . SVG Version: 6.00 Build 0)  -->
<svg version="1.1" id="Calque_1" xmlns="http://www.w3.org/2000/svg" xmlns:xlink="http://www.w3.org/1999/xlink" x="0px" y="0px"
	 viewBox="0 0 100 100" style="enable-background:new 0 0 100 100;" xml:space="preserve">
<style type="text/css">
	.st0{fill:#FFFFFF;}
</style>
<path class="st0" d="M108.1,50.2c0,32.4-26.4,58.8-58.8,58.9C16.7,109.2-9.8,82.6-9.7,50c0.1-32.4,26.6-58.7,59-58.7
	C81.7-8.6,108.1,17.8,108.1,50.2z M49.2-2.8c-29.1,0-53,23.9-53,53c0,29.1,23.9,53,53,53c29.1,0,53-23.9,53-53
	C102.2,21.1,78.3-2.8,49.2-2.8z"/>
<path class="st0" d="M55.9,39.6c4.9-3.2,9.1-6,13.4-8.6c1.7-1,3.4-2.1,5.3-2.7c3.1-1,5.3,0.1,6.3,3.4c0.8,2.7,0.7,5.5,0.7,8.2
	c0,8.7,0.1,17.5,0,26.2c0,2.9,0.1,6.1-2.8,7.8c-3.2,1.9-5.9-0.2-8.5-1.8c-4.5-2.8-9-5.8-13.5-8.8c-1.5,1.2-0.8,2.7-0.9,3.9
	c-0.5,7.4-3.9,9.3-10.3,5.4c-3.7-2.2-7.2-4.7-10.8-7c-4.1-2.7-8.3-5.3-12.3-8.1c-5.4-3.8-5.4-9,0-12.7c7.3-5.1,14.8-9.9,22.3-14.6
	c7.2-4.5,10.7-2.6,11,6C56,37,55.9,37.8,55.9,39.6z M75.6,51.4c0-3.7,0.1-7.4,0-11c0-1.6,0.7-3.6-1.3-4.5c-1.6-0.7-2.8,0.7-4.1,1.6
	c-5.3,3.4-10.5,6.9-15.8,10.3c-2.7,1.8-4.3,1.3-4.3-2.2c0-2.1,0-4.3,0-6.4c-0.1-3.2-1.3-4.3-4.3-2.4c-6,3.9-12,7.9-18.1,11.8
	c-2.8,1.8-3,3.7-0.1,5.6c4.4,2.9,8.6,5.9,13.1,8.5c2.6,1.6,5.1,5.5,8.2,3.8c2.7-1.5,0.9-5.7,1.1-8.7c0.3-4.4,1.1-5,4.9-2.5
	c5.4,3.5,10.8,7,16.1,10.6c3.1,2.1,4.4,1.1,4.4-2.4C75.6,59.4,75.6,55.4,75.6,51.4z"/>
</svg>
