<?xml version="1.0" encoding="utf-8"?>
<!-- Generator: Adobe Illustrator 21.1.0, SVG Export Plug-In . SVG Version: 6.00 Build 0)  -->
<svg version="1.1" id="Calque_1" xmlns="http://www.w3.org/2000/svg" xmlns:xlink="http://www.w3.org/1999/xlink" x="0px" y="0px"
	 viewBox="0 0 100 100" style="enable-background:new 0 0 100 100;" xml:space="preserve">
<style type="text/css">
	.st0{fill:#FFFFFF;}
</style>
<path class="st0" d="M95,50.2C95,75.4,74.5,95.9,49.3,96c-25.3,0.1-46-20.6-45.9-46C3.5,24.9,24.1,4.4,49.3,4.4
	C74.5,4.5,95,25,95,50.2z M49.2,9C26.6,9,8,27.6,8,50.2s18.6,41.2,41.2,41.2s41.2-18.6,41.2-41.2S71.8,9,49.2,9z"/>
<path class="st0" d="M54.4,42c3.8-2.5,7.1-4.7,10.4-6.7c1.3-0.8,2.6-1.6,4.1-2.1c2.4-0.8,4.1,0.1,4.9,2.6c0.6,2.1,0.5,4.3,0.5,6.4
	c0,6.8,0.1,13.6,0,20.4c0,2.3,0.1,4.7-2.2,6.1c-2.5,1.5-4.6-0.2-6.6-1.4c-3.5-2.2-7-4.5-10.5-6.8c-1.2,0.9-0.6,2.1-0.7,3
	c-0.4,5.8-3,7.2-8,4.2c-2.9-1.7-5.6-3.7-8.4-5.4c-3.2-2.1-6.5-4.1-9.6-6.3c-4.2-3-4.2-7,0-9.9c5.7-4,11.5-7.7,17.3-11.4
	c5.6-3.5,8.3-2,8.6,4.7C54.5,39.9,54.4,40.6,54.4,42z M69.7,51.1c0-2.9,0.1-5.8,0-8.6c0-1.2,0.5-2.8-1-3.5c-1.2-0.5-2.2,0.5-3.2,1.2
	c-4.1,2.6-8.2,5.4-12.3,8c-2.1,1.4-3.3,1-3.3-1.7c0-1.6,0-3.3,0-5c-0.1-2.5-1-3.3-3.3-1.9c-4.7,3-9.3,6.1-14.1,9.2
	c-2.2,1.4-2.3,2.9-0.1,4.4c3.4,2.3,6.7,4.6,10.2,6.6c2,1.2,4,4.3,6.4,3c2.1-1.2,0.7-4.4,0.9-6.8c0.2-3.4,0.9-3.9,3.8-1.9
	c4.2,2.7,8.4,5.4,12.5,8.2c2.4,1.6,3.4,0.9,3.4-1.9C69.7,57.4,69.7,54.2,69.7,51.1z"/>
</svg>
