<?xml version="1.0" encoding="utf-8"?>
<!-- Generator: Adobe Illustrator 21.1.0, SVG Export Plug-In . SVG Version: 6.00 Build 0)  -->
<svg version="1.1" id="Calque_1" xmlns="http://www.w3.org/2000/svg" xmlns:xlink="http://www.w3.org/1999/xlink" x="0px" y="0px"
	 viewBox="0 0 100 100" style="enable-background:new 0 0 100 100;" xml:space="preserve">
<style type="text/css">
	.st0{fill:#FFFFFF;}
</style>
<path class="st0" d="M95,50.2C95,75.4,74.5,95.9,49.3,96c-25.3,0.1-46-20.6-45.9-46C3.5,24.9,24.1,4.4,49.3,4.4
	C74.5,4.5,95,25,95,50.2z M49.2,9C26.6,9,8,27.6,8,50.2s18.6,41.2,41.2,41.2s41.2-18.6,41.2-41.2S71.8,9,49.2,9z"/>
<path class="st0" d="M70.5,67.4c1.6,0,2.3-0.1,3.2,0c1.2,0.2,2,0.8,2.1,2.1c0.1,1.2-0.5,2.2-1.8,2.3c-3.2,0.3-6.4,0.6-9.6,0.6
	c-1.5,0-1.9-1.2-1.9-2.6c-0.1-2.2-0.1-4.3,0-6.5c0.1-1.7-0.5-4,2.2-4.1c2.6-0.2,2.3,2.3,2.5,4c6.2-6,6.5-19.2-0.1-27.3
	c-6.7-8.2-17-10.9-26.7-6.9c-8.9,3.7-14.9,13.4-14,22.8c1,10.6,8.2,18.6,18.7,20.8c1.9,0.4,5.1-0.2,4.6,3c-0.5,3.1-3.5,1.7-5.4,1.4
	c-14.4-2.4-24.3-16.3-22.2-31c1.9-14.2,14.8-24.1,30-23.2c13.5,0.9,24.6,13.3,24.5,27.4C76.4,56.4,74.3,61.9,70.5,67.4z"/>
</svg>
