<?xml version="1.0" encoding="utf-8"?>
<!-- Generator: Adobe Illustrator 21.1.0, SVG Export Plug-In . SVG Version: 6.00 Build 0)  -->
<svg version="1.1" id="Calque_1" xmlns="http://www.w3.org/2000/svg" xmlns:xlink="http://www.w3.org/1999/xlink" x="0px" y="0px"
	 viewBox="0 0 100 100" style="enable-background:new 0 0 100 100;" xml:space="preserve">
<style type="text/css">
	.st0{fill:#FFFFFF;}
</style>
<path class="st0" d="M49.2,4.4C23.9,4.4,3.4,24.9,3.4,50.2s20.5,45.8,45.8,45.8S95,75.4,95,50.2S74.5,4.4,49.2,4.4z M73.7,67.4
	c1.2,0.2,2,0.8,2.1,2.1c0.1,1.2-0.5,2.2-1.8,2.3c-3.2,0.3-6.4,0.6-9.6,0.6c-1.5,0-1.9-1.2-1.9-2.6c-0.1-2.2-0.1-4.3,0-6.5
	c0.1-1.7-0.5-4,2.2-4.1c2.6-0.2,2.3,2.3,2.5,4c6.2-6,6.5-19.2-0.1-27.3c-6.7-8.2-17-10.9-26.7-6.9c-8.9,3.7-14.9,13.4-14,22.8
	c1,10.6,8.2,18.6,18.7,20.8c1.9,0.4,5.1-0.2,4.6,3c-0.5,3.1-3.5,1.7-5.4,1.4C29.9,74.6,20,60.7,22.1,46c1.9-14.2,14.8-24.1,30-23.2
	c13.5,0.9,24.6,13.3,24.5,27.4c-0.2,6.2-2.3,11.7-6.1,17.2C72.1,67.4,72.8,67.3,73.7,67.4z"/>
</svg>
