<?xml version="1.0" encoding="utf-8"?>
<!-- Generator: Adobe Illustrator 21.1.0, SVG Export Plug-In . SVG Version: 6.00 Build 0)  -->
<svg version="1.1" id="Calque_1" xmlns="http://www.w3.org/2000/svg" xmlns:xlink="http://www.w3.org/1999/xlink" x="0px" y="0px"
	 viewBox="0 0 100 100" style="enable-background:new 0 0 100 100;" xml:space="preserve">
<style type="text/css">
	.st0{fill:#FFFFFF;}
</style>
<path class="st0" d="M108.1,50.2c0,32.4-26.4,58.8-58.8,58.9C16.7,109.2-9.8,82.6-9.7,50c0.1-32.4,26.6-58.7,59-58.7
	C81.7-8.6,108.1,17.8,108.1,50.2z M49.2-2.8c-29.1,0-53,23.9-53,53c0,29.1,23.9,53,53,53c29.1,0,53-23.9,53-53
	C102.2,21.1,78.3-2.8,49.2-2.8z"/>
<path class="st0" d="M76.6,72.3c2,0,3-0.1,4.1,0c1.5,0.2,2.6,1,2.7,2.7c0.1,1.6-0.7,2.8-2.3,3c-4.1,0.4-8.2,0.8-12.3,0.8
	c-1.9,0-2.4-1.6-2.5-3.3c-0.1-2.8-0.1-5.5,0-8.3c0.1-2.2-0.7-5.1,2.8-5.3c3.4-0.2,2.9,2.9,3.2,5.1c8-7.7,8.4-24.7-0.1-35.1
	c-8.6-10.5-21.9-14-34.4-8.9c-11.5,4.7-19.1,17.2-18,29.3c1.3,13.6,10.6,23.9,24,26.7c2.4,0.5,6.6-0.3,5.9,3.9c-0.7,4-4.5,2.2-7,1.8
	c-18.5-3.1-31.2-20.9-28.6-39.9c2.5-18.3,19-31,38.6-29.8c17.4,1.1,31.6,17.1,31.5,35.3C84.2,58.2,81.5,65.2,76.6,72.3z"/>
</svg>
