<?xml version="1.0" encoding="utf-8"?>
<!-- Generator: Adobe Illustrator 21.1.0, SVG Export Plug-In . SVG Version: 6.00 Build 0)  -->
<svg version="1.1" id="Calque_1" xmlns="http://www.w3.org/2000/svg" xmlns:xlink="http://www.w3.org/1999/xlink" x="0px" y="0px"
	 viewBox="0 0 500 500" style="enable-background:new 0 0 500 500;" xml:space="preserve">
<style type="text/css">
	.st0{fill:#FFFFFF;}
	.st1{fill:#142651;}
	.st2{fill:#C70D25;}
	.st3{fill:#FEFEFE;}
</style>
<g>
	<path class="st0" d="M176.2,119.1c0.2,0.3,0.2,0.5,0.2,0.8v40.7c0,4.7-3.9,8.4-8.4,8.4c-4.5,0-8.2-3.7-8.2-8.4V120
		c0-0.3,0-0.5,0-0.8c0-0.2,0-0.3,0-0.7c0-9.4-7.7-16.9-17.1-16.9s-17.1,7.5-17.1,16.9v42.2c0,4.7-3.7,8.4-8.2,8.4
		c-4.5,0-8.4-3.7-8.4-8.4v-42.2c0-9.4-7.5-16.9-16.9-16.9S75,109.1,75,118.4v42.2c0,4.7-3.7,8.4-8.2,8.4c-4.7,0-8.4-3.7-8.4-8.4
		v-42.2c0-18.4,15.1-33.5,33.7-33.5c10.1,0,19.1,4.4,25.3,11.6c6.2-7.2,15.2-11.6,25.3-11.6c18.6,0,33.7,15.1,33.7,33.5
		C176.4,118.8,176.4,119,176.2,119.1z"/>
	<path class="st0" d="M254.5,93v42v0.2c-0.2,18.6-15.2,33.7-34,33.7c-18.6,0-33.7-15.1-33.8-33.7V135V93c0-4.5,3.7-8.2,8.2-8.2
		c4.7,0,8.4,3.7,8.4,8.2v41.9c0,9.5,7.7,17.4,17.3,17.4c9.7,0,17.4-7.9,17.4-17.4V93c0-4.5,3.7-8.2,8.4-8.2
		C250.8,84.8,254.5,88.5,254.5,93z"/>
	<path class="st0" d="M324.2,143.7c0,4.9-3.5,25.1-28,25.1c-11.7,0-25.5-5.2-30-16.9c-0.3-0.7-0.3-1.5-0.3-2.3
		c0-4.2,3.9-8.2,8.5-8.2c2.3,0,4.9,1.2,6.4,3.2c3.9,5.4,7.9,7.5,15.1,7.9c10.7,0,11.6-7.4,11.7-8.7c0-5.7-5.9-8-13.9-8.9
		c-10.2-1.2-27.8-6.7-27.8-25.1c0-16.1,13.6-25.6,28.3-25.6c5.5,0,11.1,1.3,16.1,3.9c1.7,0.8,13.9,6.4,13.9,16.6c-0.3,4.2-4,8-8.5,8
		c-4,0-5.7-2.7-7.7-5.7c-2.3-4.7-9.4-6.2-14.1-6.2c-6.2,0-11.6,3.5-11.6,9.2c0,12.1,18.1,4.2,32,14.9
		C320.3,129.7,324.2,136.9,324.2,143.7z"/>
	<path class="st0" d="M337.4,65.7c-1.5-1.5-2.5-3.7-2.5-5.9s1-4.4,2.5-5.9s3.7-2.5,5.9-2.5s4.4,1,5.9,2.5c1.5,1.5,2.3,3.7,2.3,5.9
		s-0.8,4.4-2.3,5.9c-1.5,1.5-3.7,2.3-5.9,2.3S338.9,67.2,337.4,65.7z M334.9,160.5V93c0-4.5,3.7-8.2,8.4-8.2c4.5,0,8.2,3.7,8.2,8.2
		v67.5c0,4.7-3.7,8.4-8.2,8.4C338.6,168.9,334.9,165.2,334.9,160.5z"/>
	<path class="st0" d="M361,126.8c0-23.3,18.8-42,41.9-42c15.1,0,29,8,36.5,20.9c2.3,4,0.8,9-3,11.4c-4,2.2-9,0.8-11.4-3
		c-4.5-7.9-12.9-12.7-22.1-12.7c-13.9,0-25.5,11.4-25.5,25.5c0,13.9,11.6,25.5,25.5,25.5c8.7,0,16.8-4.4,21.4-11.7
		c2.5-3.9,7.7-4.9,11.6-2.5c3.9,2.5,4.9,7.7,2.3,11.6c-7.7,12.1-20.9,19.3-35.3,19.3C379.8,168.9,361,149.9,361,126.8z"/>
</g>
<g id="B0QfgQ.tif">
	<g>
		<path class="st1" d="M250.6,134.1c76,0,152,0,228-0.1c2.3,0,2.7,0.6,2.7,2.8c-0.1,113.5-0.1,227,0,340.6c0,2.3-0.6,2.6-2.7,2.6
			c-152-0.1-304,0-456,0c-2.9,0-2.9,0-2.9-3c0-113.4,0-226.7-0.1-340.1c0-2.4,0.7-2.8,2.9-2.8C98.6,134.1,174.6,134.1,250.6,134.1z
			 M248.4,231.7c-0.9,0-1.8-0.1-2.7-0.1c-74.3,0-148.5,0-222.8-0.1c-2.2,0-2.7,0.5-2.7,2.7c0.1,47.6,0.1,95.1,0,142.7
			c0,2.2,0.5,2.6,2.7,2.6c65.7-0.1,131.4-0.1,197.2-0.1c9.5,0,18.9,0,28.4-0.1c0.7,0,1.5,0.1,2.2,0.1c75.9,0,151.7,0,227.6,0.1
			c2.3,0,2.7-0.7,2.7-2.8c-0.1-47.5,0-95,0-142.5c0-2.9,0-2.9-2.9-2.9c-75.7,0-151.4,0-227.1,0C250,231.5,249.1,231.3,248.4,231.7z"
			/>
		<path class="st2" d="M248.4,231.7c0.8-0.4,1.6-0.3,2.4-0.3c75.7,0,151.4,0,227.1,0c2.9,0,2.9,0,2.9,2.9c0,47.5,0,95,0,142.5
			c0,2.1-0.4,2.8-2.7,2.8c-75.9-0.1-151.7-0.1-227.6-0.1c-0.7,0-1.5-0.1-2.2-0.1C248.4,330.2,248.4,281,248.4,231.7z"/>
		<path class="st3" d="M248.4,231.7c0,49.2,0,98.5,0,147.7c-9.5,0-18.9,0.1-28.4,0.1c-65.7,0-131.4,0-197.2,0.1
			c-2.1,0-2.7-0.5-2.7-2.6c0.1-47.6,0.1-95.1,0-142.7c0-2.2,0.5-2.7,2.7-2.7c74.3,0.1,148.5,0.1,222.8,0.1
			C246.6,231.6,247.5,231.7,248.4,231.7z"/>
	</g>
</g>
<rect x="19.7" y="231.6" class="st3" width="10.5" height="148.4"/>
</svg>
